<?xml version="1.0" encoding="UTF-8"?><svg id="Layer_2" xmlns="http://www.w3.org/2000/svg" viewBox="0 0 155.37 67.32"><defs><style>.cls-1{fill:none;stroke:#ee2a22;stroke-linecap:round;stroke-linejoin:round;stroke-width:2px;}</style></defs><path class="cls-1" d="M138.37,64.98s-23.7-3.56-11.56-16.89,37.93,2.96,20.44,6.81-43.79-1.29-35.26-13.93,31.11-14.52,23.11,5.04-38.52,8.45-44.44,4.37-6.81-20.96,28.74-17.11-12.74,24.03-38.52,15.57-22.52-18.83,4.74-23.27,24.47,6.07,13.93,13.33-55.41,17.78-48.59-6.81,56.3-.89,31.11,5.63-57.19,6.52-53.93-6.52,48.89-15.7,26.37-.89S-3.26,35.64,14.23,23.79s56.59-10.96,24.59,1.78S-10.37,21.94,13.34,8.38s43.26-.89,34.37,2.96"/></svg>